<?xml version="1.0" encoding="UTF-8" standalone="no"?>
<!DOCTYPE svg PUBLIC "-//W3C//DTD SVG 1.1//EN" "http://www.w3.org/Graphics/SVG/1.1/DTD/svg11.dtd">
<svg width="100%" height="100%" viewBox="0 0 2457 2431" version="1.1" xmlns="http://www.w3.org/2000/svg" xmlns:xlink="http://www.w3.org/1999/xlink" xml:space="preserve" xmlns:serif="http://www.serif.com/" style="fill-rule:evenodd;clip-rule:evenodd;stroke-linejoin:round;stroke-miterlimit:2;">
    <g id="Plan-de-travail1" serif:id="Plan de travail1" transform="matrix(1,0,0,0.989417,0,-327.209)">
        <rect x="0" y="330.709" width="2456.69" height="2456.69" style="fill:none;"/>
        <g transform="matrix(1.84856,0,0,0.747334,-989.493,627.148)">
            <ellipse cx="1181.1" cy="1559.06" rx="47.244" ry="330.709" style="fill:rgb(178,117,2);"/>
        </g>
        <g transform="matrix(1.47885,0,0,1.49467,-552.825,-785.137)">
            <path d="M1157.48,893.599C1129.97,883.862 1110.24,857.603 1110.24,826.772C1110.24,787.66 1141.99,755.906 1181.1,755.906C1220.21,755.906 1251.97,787.66 1251.97,826.772C1251.97,857.603 1232.24,883.862 1204.72,893.599L1204.72,953.394C1287.56,1007.46 1417.32,1301.39 1417.32,1322.84C1417.32,1346.46 1259.84,1086.61 1181.1,1086.61C1102.36,1086.61 944.882,1346.46 944.882,1322.84C944.882,1301.39 1074.64,1007.46 1157.48,953.394L1157.48,893.599ZM1181.1,791.339C1200.66,791.339 1216.54,807.216 1216.54,826.772C1216.54,846.328 1200.66,862.205 1181.1,862.205C1161.55,862.205 1145.67,846.328 1145.67,826.772C1145.67,807.216 1161.55,791.339 1181.1,791.339Z" style="fill:rgb(178,117,2);"/>
        </g>
        <g transform="matrix(1.47885,0,0,1.49467,-552.825,-785.137)">
            <path d="M708.661,1511.81C774.612,1544.09 822.478,1590.84 850.394,1653.54C844.736,1577.51 813.275,1519.34 708.661,1511.81Z" style="fill:rgb(178,117,2);"/>
        </g>
        <g transform="matrix(-1.47885,0,0,1.49467,2940.52,-785.137)">
            <path d="M708.661,1511.81C774.612,1544.09 822.478,1590.84 850.394,1653.54C844.736,1577.51 813.275,1519.34 708.661,1511.81Z" style="fill:rgb(178,117,2);"/>
        </g>
        <g transform="matrix(1.47885,0,0,1.49467,-552.825,-785.137)">
            <path d="M986.91,1495.09C1000.89,1508.17 1019.36,1461.17 1028.77,1448.56C1047.23,1423.8 1079.75,1387.42 1105.24,1387.42C1130.73,1387.42 1188.77,1420.29 1181.7,1448.56C1168.96,1499.51 1028.77,1601.97 1028.77,1693.11C1028.77,1784.82 1130.73,1998.81 1181.7,1998.81C1232.68,1998.81 1345.17,1802.54 1334.64,1693.11C1321.9,1560.64 1130.73,1295.71 1105.24,1204C1097.41,1175.86 1156.21,1142.86 1181.7,1142.86C1207.19,1142.86 1243.57,1177.65 1258.17,1204C1281.88,1246.79 1359.13,1376.24 1385.66,1403.92C1396.35,1415.08 1402.84,1375.87 1417.32,1370.08C1535.43,1322.84 1992.13,1308.61 2031.5,1324.35C2070.87,1340.1 1771.65,1370.08 1653.54,1417.32C1593.98,1441.15 1497.56,1532.33 1469.9,1578.59C1449.78,1612.25 1490.39,1658.9 1487.58,1694.9C1483.71,1744.37 1414.66,1825.98 1434.18,1874.26C1453.7,1922.55 1577.32,1937.85 1604.7,1984.61C1650.79,2063.35 1623.13,2252.33 1604.7,2315.32C1594.7,2349.48 1507.11,2395.97 1494.08,2362.56C1475.64,2315.32 1521.73,2102.72 1494.08,2031.85C1480.95,1998.22 1424.68,1948.46 1387.38,1966.94C1337.23,1991.79 1249.03,2169.07 1193.21,2180.96C1183.76,2215.15 1204.59,2245.02 1275.59,2267.72C1148.01,2270.58 1110.91,2226.24 1125.67,2154.84C1081.48,2116.71 1030.69,1984.85 988.898,1964.35C949.248,1944.91 888.775,1996.29 874.896,2031.85C847.241,2102.72 893.333,2315.32 874.896,2362.56C861.859,2395.97 774.274,2349.48 764.275,2315.32C745.838,2252.33 718.183,2063.35 764.275,1984.61C792.628,1936.17 923.343,1919.9 941.935,1871.61C960.527,1823.33 884.168,1734.91 875.828,1694.9C868.737,1660.89 924.768,1621.47 906.063,1590.41C878.202,1544.15 773.726,1443.35 708.661,1417.32C590.551,1370.08 338.583,1340.1 377.953,1324.35C417.323,1308.61 826.772,1322.84 944.882,1370.08C981.856,1384.87 972.929,1482.01 986.91,1495.09Z" style="fill:rgb(178,117,2);"/>
        </g>
    </g>
</svg>
